<svg width="56" height="44" fill="none" xmlns="http://www.w3.org/2000/svg"><path fill="#000" d="M0 0h56v44H0z"/><g clip-path="url(#a)"><path fill-rule="evenodd" clip-rule="evenodd" d="M20 16a2 2 0 1 1 4 0 2 2 0 0 1-4 0Zm6 0a2 2 0 1 1 4 0 2 2 0 0 1-4 0Zm10 0a2 2 0 1 0-4 0 2 2 0 0 0 4 0Zm-16 6a2 2 0 1 1 4 0 2 2 0 0 1-4 0Zm10 0a2 2 0 1 0-4 0 2 2 0 0 0 4 0Zm2 0a2 2 0 1 1 4 0 2 2 0 0 1-4 0Zm-8 6a2 2 0 1 0-4 0 2 2 0 0 0 4 0Zm2 0a2 2 0 1 1 4 0 2 2 0 0 1-4 0Zm10 0a2 2 0 1 0-4 0 2 2 0 0 0 4 0Z" fill="#fff"/></g><defs><clipPath id="a"><path fill="#fff" transform="translate(20 14)" d="M0 0h16v16H0z"/></clipPath></defs></svg>